<svg width="234" height="50" viewBox="0 0 234 50" fill="none" xmlns="http://www.w3.org/2000/svg">
<path d="M41.4286 13H58L43.6883 37.1039H27.1169L41.4286 13Z" fill="#1E28FF"/>
<path d="M26.3637 13H38.4157L24.104 37.1039H12.052L26.3637 13Z" fill="#5B62F6"/>
<path d="M14.3117 13H23.3506L9.03896 37.1039H0L14.3117 13Z" fill="#8E93FF"/>
<path d="M68.23 37.231C66.624 37.231 65.172 36.956 63.874 36.406C62.598 35.856 61.586 35.064 60.838 34.03C60.09 32.996 59.705 31.775 59.683 30.367H64.633C64.699 31.313 65.029 32.061 65.623 32.611C66.239 33.161 67.075 33.436 68.131 33.436C69.209 33.436 70.056 33.183 70.672 32.677C71.288 32.149 71.596 31.467 71.596 30.631C71.596 29.949 71.387 29.388 70.969 28.948C70.551 28.508 70.023 28.167 69.385 27.925C68.769 27.661 67.911 27.375 66.811 27.067C65.315 26.627 64.094 26.198 63.148 25.78C62.224 25.34 61.421 24.691 60.739 23.833C60.079 22.953 59.749 21.787 59.749 20.335C59.749 18.971 60.09 17.783 60.772 16.771C61.454 15.759 62.411 14.989 63.643 14.461C64.875 13.911 66.283 13.636 67.867 13.636C70.243 13.636 72.168 14.219 73.642 15.385C75.138 16.529 75.963 18.135 76.117 20.203H71.035C70.991 19.411 70.65 18.762 70.012 18.256C69.396 17.728 68.571 17.464 67.537 17.464C66.635 17.464 65.909 17.695 65.359 18.157C64.831 18.619 64.567 19.29 64.567 20.17C64.567 20.786 64.765 21.303 65.161 21.721C65.579 22.117 66.085 22.447 66.679 22.711C67.295 22.953 68.153 23.239 69.253 23.569C70.749 24.009 71.97 24.449 72.916 24.889C73.862 25.329 74.676 25.989 75.358 26.869C76.04 27.749 76.381 28.904 76.381 30.334C76.381 31.566 76.062 32.71 75.424 33.766C74.786 34.822 73.851 35.669 72.619 36.307C71.387 36.923 69.924 37.231 68.23 37.231ZM91.2104 37L85.0064 29.212V37H80.3864V12.58H85.0064V26.473L91.1444 18.718H97.1504L89.0984 27.892L97.2164 37H91.2104ZM102.001 16.54C101.187 16.54 100.505 16.287 99.9549 15.781C99.4269 15.253 99.1629 14.604 99.1629 13.834C99.1629 13.064 99.4269 12.426 99.9549 11.92C100.505 11.392 101.187 11.128 102.001 11.128C102.815 11.128 103.486 11.392 104.014 11.92C104.564 12.426 104.839 13.064 104.839 13.834C104.839 14.604 104.564 15.253 104.014 15.781C103.486 16.287 102.815 16.54 102.001 16.54ZM104.278 18.718V37H99.6579V18.718H104.278ZM113.462 12.58V37H108.842V12.58H113.462ZM122.647 12.58V37H118.027V12.58H122.647ZM140.28 25.186C141.578 25.428 142.645 26.077 143.481 27.133C144.317 28.189 144.735 29.399 144.735 30.763C144.735 31.995 144.427 33.084 143.811 34.03C143.217 34.954 142.348 35.68 141.204 36.208C140.06 36.736 138.707 37 137.145 37H127.212V13.966H136.716C138.278 13.966 139.62 14.219 140.742 14.725C141.886 15.231 142.744 15.935 143.316 16.837C143.91 17.739 144.207 18.762 144.207 19.906C144.207 21.248 143.844 22.37 143.118 23.272C142.414 24.174 141.468 24.812 140.28 25.186ZM131.832 23.47H136.056C137.156 23.47 138.003 23.228 138.597 22.744C139.191 22.238 139.488 21.523 139.488 20.599C139.488 19.675 139.191 18.96 138.597 18.454C138.003 17.948 137.156 17.695 136.056 17.695H131.832V23.47ZM136.485 33.238C137.607 33.238 138.476 32.974 139.092 32.446C139.73 31.918 140.049 31.17 140.049 30.202C140.049 29.212 139.719 28.442 139.059 27.892C138.399 27.32 137.508 27.034 136.386 27.034H131.832V33.238H136.485ZM153.037 21.556C153.631 20.588 154.401 19.829 155.347 19.279C156.315 18.729 157.415 18.454 158.647 18.454V23.305H157.426C155.974 23.305 154.874 23.646 154.126 24.328C153.4 25.01 153.037 26.198 153.037 27.892V37H148.417V18.718H153.037V21.556ZM164.101 16.54C163.287 16.54 162.605 16.287 162.055 15.781C161.527 15.253 161.263 14.604 161.263 13.834C161.263 13.064 161.527 12.426 162.055 11.92C162.605 11.392 163.287 11.128 164.101 11.128C164.915 11.128 165.586 11.392 166.114 11.92C166.664 12.426 166.939 13.064 166.939 13.834C166.939 14.604 166.664 15.253 166.114 15.781C165.586 16.287 164.915 16.54 164.101 16.54ZM166.378 18.718V37H161.758V18.718H166.378ZM169.755 27.793C169.755 25.945 170.118 24.306 170.844 22.876C171.592 21.446 172.604 20.346 173.88 19.576C175.156 18.806 176.575 18.421 178.137 18.421C179.325 18.421 180.458 18.685 181.536 19.213C182.614 19.719 183.472 20.401 184.11 21.259V12.58H188.796V37H184.11V34.294C183.538 35.196 182.735 35.922 181.701 36.472C180.667 37.022 179.468 37.297 178.104 37.297C176.564 37.297 175.156 36.901 173.88 36.109C172.604 35.317 171.592 34.206 170.844 32.776C170.118 31.324 169.755 29.663 169.755 27.793ZM184.143 27.859C184.143 26.737 183.923 25.78 183.483 24.988C183.043 24.174 182.449 23.558 181.701 23.14C180.953 22.7 180.15 22.48 179.292 22.48C178.434 22.48 177.642 22.689 176.916 23.107C176.19 23.525 175.596 24.141 175.134 24.955C174.694 25.747 174.474 26.693 174.474 27.793C174.474 28.893 174.694 29.861 175.134 30.697C175.596 31.511 176.19 32.138 176.916 32.578C177.664 33.018 178.456 33.238 179.292 33.238C180.15 33.238 180.953 33.029 181.701 32.611C182.449 32.171 183.043 31.555 183.483 30.763C183.923 29.949 184.143 28.981 184.143 27.859ZM200.469 18.421C201.833 18.421 203.032 18.696 204.066 19.246C205.1 19.774 205.914 20.467 206.508 21.325V18.718H211.161V37.132C211.161 38.826 210.82 40.333 210.138 41.653C209.456 42.995 208.433 44.051 207.069 44.821C205.705 45.613 204.055 46.009 202.119 46.009C199.523 46.009 197.389 45.404 195.717 44.194C194.067 42.984 193.132 41.334 192.912 39.244H197.499C197.741 40.08 198.258 40.74 199.05 41.224C199.864 41.73 200.843 41.983 201.987 41.983C203.329 41.983 204.418 41.576 205.254 40.762C206.09 39.97 206.508 38.76 206.508 37.132V34.294C205.914 35.152 205.089 35.867 204.033 36.439C202.999 37.011 201.811 37.297 200.469 37.297C198.929 37.297 197.521 36.901 196.245 36.109C194.969 35.317 193.957 34.206 193.209 32.776C192.483 31.324 192.12 29.663 192.12 27.793C192.12 25.945 192.483 24.306 193.209 22.876C193.957 21.446 194.958 20.346 196.212 19.576C197.488 18.806 198.907 18.421 200.469 18.421ZM206.508 27.859C206.508 26.737 206.288 25.78 205.848 24.988C205.408 24.174 204.814 23.558 204.066 23.14C203.318 22.7 202.515 22.48 201.657 22.48C200.799 22.48 200.007 22.689 199.281 23.107C198.555 23.525 197.961 24.141 197.499 24.955C197.059 25.747 196.839 26.693 196.839 27.793C196.839 28.893 197.059 29.861 197.499 30.697C197.961 31.511 198.555 32.138 199.281 32.578C200.029 33.018 200.821 33.238 201.657 33.238C202.515 33.238 203.318 33.029 204.066 32.611C204.814 32.171 205.408 31.555 205.848 30.763C206.288 29.949 206.508 28.981 206.508 27.859ZM232.668 27.463C232.668 28.123 232.624 28.717 232.536 29.245H219.171C219.281 30.565 219.743 31.599 220.557 32.347C221.371 33.095 222.372 33.469 223.56 33.469C225.276 33.469 226.497 32.732 227.223 31.258H232.206C231.678 33.018 230.666 34.47 229.17 35.614C227.674 36.736 225.837 37.297 223.659 37.297C221.899 37.297 220.315 36.912 218.907 36.142C217.521 35.35 216.432 34.239 215.64 32.809C214.87 31.379 214.485 29.729 214.485 27.859C214.485 25.967 214.87 24.306 215.64 22.876C216.41 21.446 217.488 20.346 218.874 19.576C220.26 18.806 221.855 18.421 223.659 18.421C225.397 18.421 226.948 18.795 228.312 19.543C229.698 20.291 230.765 21.358 231.513 22.744C232.283 24.108 232.668 25.681 232.668 27.463ZM227.883 26.143C227.861 24.955 227.432 24.009 226.596 23.305C225.76 22.579 224.737 22.216 223.527 22.216C222.383 22.216 221.415 22.568 220.623 23.272C219.853 23.954 219.38 24.911 219.204 26.143H227.883Z" fill="#3F3F3F"/>
</svg>
